<?xml version="1.0" encoding="UTF-8" standalone="no"?>
<svg
   xmlns:dc="http://purl.org/dc/elements/1.1/"
   xmlns:cc="http://creativecommons.org/ns#"
   xmlns:rdf="http://www.w3.org/1999/02/22-rdf-syntax-ns#"
   xmlns:svg="http://www.w3.org/2000/svg"
   xmlns="http://www.w3.org/2000/svg"
   xmlns:sodipodi="http://sodipodi.sourceforge.net/DTD/sodipodi-0.dtd"
   xmlns:inkscape="http://www.inkscape.org/namespaces/inkscape"
   version="1.1"
   width="24"
   height="24"
   viewBox="0 0 24 24"
   id="svg3749"
   sodipodi:docname="icon.svg"
   inkscape:version="0.92.2 5c3e80d, 2017-08-06">
  <metadata
     id="metadata3755">
    <rdf:RDF>
      <cc:Work
         rdf:about="">
        <dc:format>image/svg+xml</dc:format>
        <dc:type
           rdf:resource="http://purl.org/dc/dcmitype/StillImage" />
      </cc:Work>
    </rdf:RDF>
  </metadata>
  <defs
     id="defs3753" />
  <sodipodi:namedview
     pagecolor="#ffffff"
     bordercolor="#666666"
     borderopacity="1"
     objecttolerance="10"
     gridtolerance="10"
     guidetolerance="10"
     inkscape:pageopacity="0"
     inkscape:pageshadow="2"
     inkscape:window-width="2006"
     inkscape:window-height="1260"
     id="namedview3751"
     showgrid="false"
     inkscape:snap-text-baseline="true"
     inkscape:zoom="56.5"
     inkscape:cx="11.316235"
     inkscape:cy="10.118618"
     inkscape:window-x="0"
     inkscape:window-y="0"
     inkscape:window-maximized="0"
     inkscape:current-layer="svg3749" />
  <path
     d="m 2.81,14.12 2.83,-2.83 2.53,-0.5 c 3.22,-4.38 9.38,-6.57 11.61,-6.57 0,2.23 -2.19,8.39 -6.57,11.61 l -0.5,2.53 -2.83,2.83 -0.71,-3.53 c -1.41,0 -1.41,0 -2.12,-0.71 C 6.34,16.24 6.34,16.24 6.34,14.83 L 2.81,14.12 M 4.22,15.54 5.46,15.71 3,18.16 v -1.42 l 1.22,-1.2 m 4.07,3 0.17,1.24 L 7.26,21 H 5.84 l 2.45,-2.46"
     id="path3747"
     inkscape:connector-curvature="0"
     style="fill:#000000"
     sodipodi:nodetypes="ccccccccscccccccccccc" />
  <g
     inkscape:groupmode="layer"
     id="layer1"
     inkscape:label="Layer 1"
     style="display:inline">
    <ellipse
       style="fill:#ffffff;fill-opacity:1;stroke-width:1.16924357"
       id="path4977"
       cx="12.548673"
       cy="11.486725"
       rx="2.6017697"
       ry="2.5309734" />
  </g>
  <g
     transform="matrix(0.01915014,-0.00558356,0.00558356,0.01915014,5.585528,-1.1952181)"
     id="g4819">
    <path
       d="m 168,686.50079 c 0,10.3 -8.35,18.6 -18.6,18.6 -10.3,0 -18.6,-8.35 -18.6,-18.6 0,-10.3 8.35,-18.6 18.6,-18.6 10.3,0 18.6,8.35 18.6,18.6"
       id="path4730"
       inkscape:connector-curvature="0"
       style="fill:#737577" />
    <path
       d="m 195,681.00079 c 0,5.01 -4.06,9.07 -9.08,9.07 -5.01,0 -9.07,-4.06 -9.07,-9.07 0,-5.01 4.06,-9.07 9.07,-9.07 5.01,0 9.08,4.06 9.08,9.07"
       id="path4732"
       inkscape:connector-curvature="0"
       style="fill:#858789" />
    <path
       d="m 190,713.80079 c 0,6.4 -5.19,11.6 -11.6,11.6 -6.4,0 -11.6,-5.19 -11.6,-11.6 0,-6.4 5.19,-11.6 11.6,-11.6 6.4,0 11.6,5.19 11.6,11.6"
       id="path4734"
       inkscape:connector-curvature="0"
       style="fill:#858789" />
    <path
       d="m 125,766.70079 c 0,8.07 -6.54,14.6 -14.6,14.6 -8.07,0 -14.6,-6.54 -14.6,-14.6 0,-8.07 6.54,-14.6 14.6,-14.6 8.07,0 14.6,6.54 14.6,14.6"
       id="path4736"
       inkscape:connector-curvature="0"
       style="fill:#858789" />
    <path
       d="m 100,666.30079 c 0,-4.18 3.38,-7.56 7.56,-7.56 4.18,0 7.56,3.38 7.56,7.56 0,4.18 -3.38,7.56 -7.56,7.56 -4.18,0 -7.56,-3.38 -7.56,-7.56"
       id="path4738"
       inkscape:connector-curvature="0"
       style="fill:#858789" />
    <path
       d="m 123,731.70079 c 0,2.78 -2.26,5.04 -5.04,5.04 -2.78,0 -5.04,-2.26 -5.04,-5.04 0,-2.79 2.26,-5.04 5.04,-5.04 2.78,0 5.04,2.26 5.04,5.04"
       id="path4740"
       inkscape:connector-curvature="0"
       style="fill:#858789" />
    <path
       d="m 235,779.70079 c 0,3.9 -3.16,7.06 -7.06,7.06 -3.9,0 -7.06,-3.16 -7.06,-7.06 0,-3.9 3.16,-7.06 7.06,-7.06 3.9,0 7.06,3.16 7.06,7.06"
       id="path4742"
       inkscape:connector-curvature="0"
       style="fill:#858789" />
    <path
       d="m 175,736.70079 c 0,6.12 -4.96,11.1 -11.1,11.1 -6.12,0 -11.1,-4.96 -11.1,-11.1 0,-6.12 4.96,-11.1 11.1,-11.1 6.12,0 11.1,4.97 11.1,11.1"
       id="path4752"
       inkscape:connector-curvature="0"
       style="fill:#4d4c4e" />
    <path
       d="m 205,758.70079 c 0,7.24 -5.87,13.1 -13.1,13.1 -7.24,0 -13.1,-5.87 -13.1,-13.1 0,-7.24 5.87,-13.1 13.1,-13.1 7.24,0 13.1,5.87 13.1,13.1"
       id="path4754"
       inkscape:connector-curvature="0"
       style="fill:#4d4c4e" />
    <path
       d="m 120,645.70079 c 0,4.45 -3.61,8.06 -8.07,8.06 -4.45,0 -8.06,-3.61 -8.06,-8.06 0,-4.45 3.61,-8.06 8.06,-8.06 4.46,0 8.07,3.61 8.07,8.06"
       id="path4756"
       inkscape:connector-curvature="0"
       style="fill:#4d4c4e" />
    <path
       d="m 96.8,780.70079 c 0,3.9 -3.16,7.06 -7.06,7.06 -3.9,0 -7.06,-3.16 -7.06,-7.06 0,-3.9 3.16,-7.06 7.06,-7.06 3.9,0 7.06,3.16 7.06,7.06"
       id="path4758"
       inkscape:connector-curvature="0"
       style="fill:#4d4c4e" />
    <path
       d="m 187,660.30079 c 0,4.18 -3.39,7.56 -7.56,7.56 -4.18,0 -7.56,-3.38 -7.56,-7.56 0,-4.18 3.38,-7.56 7.56,-7.56 4.18,0 7.56,3.38 7.56,7.56"
       id="path4760"
       inkscape:connector-curvature="0"
       style="fill:#4d4c4e" />
    <path
       d="m 139,660.30079 c 0,5.84 -4.74,10.6 -10.6,10.6 -5.84,0 -10.6,-4.74 -10.6,-10.6 0,-5.85 4.74,-10.6 10.6,-10.6 5.85,0 10.6,4.74 10.6,10.6"
       id="path4762"
       inkscape:connector-curvature="0"
       style="fill:#0088cc" />
    <path
       d="m 126,683.00079 c 0,3.9 -3.16,7.06 -7.06,7.06 -3.9,0 -7.06,-3.16 -7.06,-7.06 0,-3.9 3.16,-7.06 7.06,-7.06 3.9,0 7.06,3.16 7.06,7.06"
       id="path4764"
       inkscape:connector-curvature="0"
       style="fill:#0088cc" />
    <path
       d="m 235,641.20079 c 0,4.18 -3.38,7.56 -7.56,7.56 -4.18,0 -7.56,-3.38 -7.56,-7.56 0,-4.18 3.38,-7.56 7.56,-7.56 4.18,0 7.56,3.38 7.56,7.56"
       id="path4770"
       inkscape:connector-curvature="0"
       style="fill:#0088cc" />
    <path
       d="m 219,658.80079 c 0,7.8 -6.32,14.1 -14.1,14.1 -7.8,0 -14.1,-6.32 -14.1,-14.1 0,-7.79 6.32,-14.1 14.1,-14.1 7.79,0 14.1,6.32 14.1,14.1"
       id="path4772"
       inkscape:connector-curvature="0"
       style="fill:#0088cc" />
    <path
       d="m 148,719.70079 c 0,5.57 -4.51,10.1 -10.1,10.1 -5.57,0 -10.1,-4.51 -10.1,-10.1 0,-5.57 4.51,-10.1 10.1,-10.1 5.57,0 10.1,4.51 10.1,10.1"
       id="path4774"
       inkscape:connector-curvature="0"
       style="fill:#0088cc" />
    <path
       d="m 139,745.70079 c 0,5.01 -4.06,9.07 -9.07,9.07 -5.01,0 -9.07,-4.06 -9.07,-9.07 0,-5.01 4.06,-9.07 9.07,-9.07 5.01,0 9.07,4.06 9.07,9.07"
       id="path4776"
       inkscape:connector-curvature="0"
       style="fill:#0088cc" />
    <path
       d="m 213,733.70079 c 0,5.01 -4.06,9.07 -9.07,9.07 -5.01,0 -9.07,-4.06 -9.07,-9.07 0,-5.01 4.06,-9.07 9.07,-9.07 5.01,0 9.07,4.06 9.07,9.07"
       id="path4778"
       inkscape:connector-curvature="0"
       style="fill:#0088cc" />
    <path
       d="m 227,758.70079 c 0,4.45 -3.61,8.06 -8.06,8.06 -4.45,0 -8.06,-3.61 -8.06,-8.06 0,-4.45 3.61,-8.06 8.06,-8.06 4.45,0 8.06,3.61 8.06,8.06"
       id="path4780"
       inkscape:connector-curvature="0"
       style="fill:#0088cc" />
    <path
       d="m 98.6,642.20079 c 0,2.78 -2.26,5.04 -5.04,5.04 -2.78,0 -5.04,-2.26 -5.04,-5.04 0,-2.78 2.26,-5.04 5.04,-5.04 2.78,0 5.04,2.26 5.04,5.04"
       id="path4782"
       inkscape:connector-curvature="0"
       style="fill:#0088cc" />
    <path
       d="m 96.8,628.60079 c 0,2.78 -2.26,5.04 -5.04,5.04 -2.78,0 -5.04,-2.26 -5.04,-5.04 0,-2.78 2.26,-5.04 5.04,-5.04 2.78,0 5.04,2.26 5.04,5.04"
       id="path4784"
       inkscape:connector-curvature="0"
       style="fill:#0088cc" />
    <path
       d="m 113,741.70079 c 0,3.34 -2.71,6.05 -6.05,6.05 -3.34,0 -6.05,-2.71 -6.05,-6.05 0,-3.34 2.71,-6.05 6.05,-6.05 3.34,0 6.05,2.71 6.05,6.05"
       id="path4786"
       inkscape:connector-curvature="0"
       style="fill:#0088cc" />
  </g>
</svg>
